<?xml version="1.0" encoding="UTF-8" standalone="no"?>
<svg width="67px" height="123px" viewBox="0 0 67 123" version="1.1" xmlns="http://www.w3.org/2000/svg" xmlns:xlink="http://www.w3.org/1999/xlink" xmlns:sketch="http://www.bohemiancoding.com/sketch/ns">
    <!-- Generator: Sketch 3.4.2 (15857) - http://www.bohemiancoding.com/sketch -->
    <title>Group Copy 3</title>
    <desc>Created with Sketch.</desc>
    <defs></defs>
    <g id="Page-1" stroke="none" stroke-width="1" fill="none" fill-rule="evenodd" sketch:type="MSPage">
        <g id="Group-Copy-3" sketch:type="MSLayerGroup" transform="translate(-1.000000, 0.000000)">
            <path d="M19,103 L62,103 L54.1818182,123 L26.8181818,123 L19,103 Z" id="Rectangle-243" fill="#DDDDDD" sketch:type="MSShapeGroup" transform="translate(40.500000, 113.000000) rotate(-180.000000) translate(-40.500000, -113.000000) "></path>
            <path d="M32.5039063,103 L23,40.9650213 L67.0644531,11.3535156 L48.4960938,103 L32.5039063,103 Z" id="Rectangle-243-Copy" fill="#D1D1D1" sketch:type="MSShapeGroup"></path>
            <path d="M36.5039063,103 L30,34.9650213 L41.84375,25.3154297 L39.7880859,103.083984 L36.5039063,103 Z" id="Rectangle-243-Copy-2" opacity="0.362290112" fill="#FFFFFF" sketch:type="MSShapeGroup"></path>
            <path d="M39.0986328,103 L34.4775391,123 L24.1679688,123 L32.0986328,103 L39.0986328,103 Z" id="Rectangle-244" opacity="0.362290112" fill="#FFFFFF" sketch:type="MSShapeGroup"></path>
            <polygon id="Star-1" fill="#44C3D2" sketch:type="MSShapeGroup" points="32 48 13.1908719 57.8885438 16.7830957 36.9442719 1.56619148 22.1114562 22.595436 19.0557281 32 0 41.404564 19.0557281 62.4338085 22.1114562 47.2169043 36.9442719 50.8091281 57.8885438 "></polygon>
            <polygon id="Star-1-Copy" opacity="0.362290112" fill="#9BEAF3" sketch:type="MSShapeGroup" points="13.1908719 57.8885438 16.7830957 36.9442719 1.56619148 22.1114562 22.595436 19.0557281 32 0 41.404564 19.0557281 "></polygon>
        </g>
    </g>
</svg>