<?xml version="1.0" encoding="UTF-8" standalone="no"?>
<svg width="31px" height="26px" viewBox="0 0 31 26" version="1.1" xmlns="http://www.w3.org/2000/svg" xmlns:xlink="http://www.w3.org/1999/xlink" xmlns:sketch="http://www.bohemiancoding.com/sketch/ns">
    <!-- Generator: Sketch 3.3 (11970) - http://www.bohemiancoding.com/sketch -->
    <title>Shape</title>
    <desc>Created with Sketch.</desc>
    <defs></defs>
    <g id="Main-full-menu+hovers" stroke="none" stroke-width="1" fill="none" fill-rule="evenodd" sketch:type="MSPage">
        <g sketch:type="MSArtboardGroup" transform="translate(-1790.000000, -262.000000)" id="PHONE" fill="#FFFFFF">
            <g sketch:type="MSLayerGroup" transform="translate(1790.360393, 184.941828)">
                <path d="M18.6653107,80.9458126 C19.2464083,80.9458126 19.8175648,80.9795167 20.3781778,81.039435 C18.3414746,78.7759575 15.0055108,77.298596 11.2324436,77.298596 C5.02894881,77.298596 -8.8817842e-15,81.2875344 -8.8817842e-15,86.2086398 C-8.8817842e-15,88.0461354 0.701293448,89.7544321 1.90355382,91.1724994 C2.51176322,91.8902711 1.0739309,97.19398 1.0739309,97.19398 C1.0739309,97.19398 5.65402781,93.9821076 6.54118812,94.3060411 C6.57914472,94.3197724 6.6183063,94.3316312 6.6562629,94.3450504 C6.20078365,93.306778 5.95045081,92.1923594 5.95045081,91.0308175 C5.95045081,85.4612209 11.6430377,80.9458126 18.6653107,80.9458126 L18.6653107,80.9458126 Z M27.9938993,96.1329262 C29.1961597,94.7142347 29.8977544,93.0062501 29.8977544,91.1690666 C29.8977544,86.2476491 24.8688056,82.2590228 18.6653107,82.2590228 C12.4618159,82.2590228 7.43316832,86.2476491 7.43316832,91.1690666 C7.43316832,96.0898599 12.4621171,100.078174 18.6653107,100.078174 C20.3399199,100.078174 21.9289762,99.7879446 23.356265,99.2661558 C24.2434253,98.9428464 28.8235222,102.154719 28.8235222,102.154719 C28.8235222,102.154719 27.3859912,96.8500737 27.9938993,96.1329262 L27.9938993,96.1329262 Z" id="Shape" sketch:type="MSShapeGroup"></path>
            </g>
        </g>
    </g>
</svg>