<?xml version="1.0" encoding="UTF-8" standalone="no"?>
<svg width="30px" height="20px" viewBox="0 0 30 20" version="1.1" xmlns="http://www.w3.org/2000/svg" xmlns:xlink="http://www.w3.org/1999/xlink" xmlns:sketch="http://www.bohemiancoding.com/sketch/ns">
    <!-- Generator: Sketch 3.3 (11970) - http://www.bohemiancoding.com/sketch -->
    <title>Shape</title>
    <desc>Created with Sketch.</desc>
    <defs></defs>
    <g id="Main-full-menu+hovers" stroke="none" stroke-width="1" fill="none" fill-rule="evenodd" sketch:type="MSPage">
        <g sketch:type="MSArtboardGroup" transform="translate(-1790.000000, -185.000000)" id="PHONE" fill="#FFFFFF">
            <g sketch:type="MSLayerGroup" transform="translate(1790.360393, 184.941828)">
                <path d="M0.302548722,1.69424328 C0.114856459,2.08312549 0,2.51650665 0,2.98084361 L0,16.6449261 C0,17.2030978 0.159678492,17.7196727 0.423007935,18.1627276 L10.7563541,9.97782122 L0.302548722,1.69424328 L0.302548722,1.69424328 Z M14.1805706,12.380765 C13.3756416,12.380765 12.6024616,11.8893417 11.4277508,10.6723919 L1.10934531,18.9433941 C1.58091045,19.3167984 2.16266309,19.5470321 2.80137705,19.5470321 L26.4375291,19.5470321 C26.8708087,19.5470321 27.2760746,19.4367521 27.643055,19.2548868 L16.9324567,10.6733593 C15.7586797,11.8903091 14.9864334,12.380765 14.1805706,12.380765 L14.1805706,12.380765 Z M28.6552859,1.22506947 L17.6047872,9.97685385 L28.4956074,18.5999782 C28.9531656,18.0834033 29.2398399,17.400441 29.2398399,16.6439587 L29.2398399,2.97987625 C29.2398399,2.31722871 29.0166635,1.71359065 28.6552859,1.22506947 L28.6552859,1.22506947 Z M15.3225987,10.6501425 L27.8783707,0.502445076 C27.4562965,0.238353428 26.9679231,0.0777702283 26.4384628,0.0777702283 L2.80231085,0.0777702283 C2.07301902,0.0777702283 1.41376162,0.373785042 0.916050297,0.847795692 L13.0404102,10.6501425 C13.8789557,11.5198069 14.4821856,11.5198069 15.3225987,10.6501425 L15.3225987,10.6501425 Z" id="Shape" sketch:type="MSShapeGroup"></path>
            </g>
        </g>
    </g>
</svg>