<?xml version="1.0" encoding="UTF-8" standalone="no"?>
<svg width="29px" height="31px" viewBox="0 0 29 31" version="1.1" xmlns="http://www.w3.org/2000/svg" xmlns:xlink="http://www.w3.org/1999/xlink" xmlns:sketch="http://www.bohemiancoding.com/sketch/ns">
    <!-- Generator: Sketch 3.3 (11970) - http://www.bohemiancoding.com/sketch -->
    <title>Shape</title>
    <desc>Created with Sketch.</desc>
    <defs></defs>
    <g id="Main-full-menu+hovers" stroke="none" stroke-width="1" fill="none" fill-rule="evenodd" sketch:type="MSPage">
        <g sketch:type="MSArtboardGroup" transform="translate(-1791.000000, -219.000000)" id="PHONE" fill="#FFFFFF">
            <g sketch:type="MSLayerGroup" transform="translate(1790.360393, 184.941828)">
                <path d="M9.16196944,44.5405591 L10.6777322,43.4997343 C11.3494084,43.0380714 11.5330804,42.0991902 11.0879776,41.4050291 L7.34509194,35.5525769 C6.89972099,34.8567492 5.99423172,34.6653619 5.32228735,35.1275803 L4.08886992,35.9634069 C3.93415647,36.0697949 3.78748705,36.215627 3.65717382,36.3856256 C3.16300244,36.9125658 0.461550129,39.5175445 1.09729638,41.0297544 C2.40659579,44.1416735 6.38436701,50.331623 10.3294259,54.4918669 C14.2752891,58.6526663 20.1790685,62.8851317 23.1596485,64.2967869 C24.6094502,64.9817813 27.3210917,62.3829136 27.8369819,61.8820844 C28.0016163,61.7506965 28.1448,61.6018089 28.2501767,61.4434768 L29.0792478,60.1812649 C29.5366848,59.4926594 29.369369,58.5521115 28.7052005,58.0785043 L23.1239866,54.0977034 C22.4606226,53.6232628 21.5516476,53.7968725 21.0942106,54.4852002 L20.0626982,56.0357432 C19.5720126,55.6440797 19.0826676,55.2488051 18.6027074,54.8521417 L16.8316808,53.3465984 C15.8063355,52.4477169 14.8753735,51.5757795 14.1243295,50.7846749 C13.691829,50.3282897 12.113591,48.5008046 11.6859169,47.9180316 C11.6773366,47.9269204 10.2787485,46.0733244 10.2787485,46.0733244 C9.90443311,45.5694396 9.53092214,45.0561105 9.16196944,44.5405591 Z" id="Shape" sketch:type="MSShapeGroup"></path>
            </g>
        </g>
    </g>
</svg>