<?xml version="1.0" encoding="UTF-8" standalone="no"?>
<svg width="26px" height="26px" viewBox="0 0 26 26" version="1.1" xmlns="http://www.w3.org/2000/svg" xmlns:xlink="http://www.w3.org/1999/xlink" xmlns:sketch="http://www.bohemiancoding.com/sketch/ns">
    <!-- Generator: Sketch 3.4.3 (16044) - http://www.bohemiancoding.com/sketch -->
    <title>Group</title>
    <desc>Created with Sketch.</desc>
    <defs></defs>
    <g id="Main-full-menu+hovers" stroke="none" stroke-width="1" fill="none" fill-rule="evenodd" sketch:type="MSPage">
        <g id="Main-New-with-calendar-2.0" sketch:type="MSArtboardGroup" transform="translate(-1016.000000, -3230.000000)" fill="#FFFFFF">
            <g id="Group-+-Group" sketch:type="MSLayerGroup" transform="translate(-1.000000, 3149.000000)">
                <g id="Group" transform="translate(0.250000, 0.281895)" sketch:type="MSShapeGroup">
                    <g transform="translate(1017.000000, 81.000000)">
                        <path d="M19.1399298,25.7158951 C22.7990153,25.7158951 25.7652902,22.6682308 25.7652902,18.9087464 C25.7652902,15.149262 22.7990153,12.1015977 19.1399298,12.1015977 C15.4808444,12.1015977 12.5145695,15.149262 12.5145695,18.9087464 C12.5145695,22.6682308 15.4808444,25.7158951 19.1399298,25.7158951 Z M19.1399298,24.2031954 C21.9858852,24.2031954 24.2929879,21.8327898 24.2929879,18.9087464 C24.2929879,15.9847029 21.9858852,13.6142974 19.1399298,13.6142974 C16.2939745,13.6142974 13.9868718,15.9847029 13.9868718,18.9087464 C13.9868718,21.8327898 16.2939745,24.2031954 19.1399298,24.2031954 Z" id="Oval-147"></path>
                        <rect id="Rectangle-866" x="18.4037787" y="14.857" width="1.4723023" height="4.59349585"></rect>
                        <path d="M16.5499215,20.5711714 L16.5499215,16.7617238 L18.0222238,16.7617238 L18.0222238,20.5711714 L16.5499215,20.5711714 L16.5499215,20.5711714 Z" id="Rectangle-866-Copy"></path>
                        <rect id="Rectangle-863" x="4.41690689" y="0.67137779" width="2.94460459" height="4.59349585" rx="5"></rect>
                        <rect id="Rectangle-863-Copy" x="12.5145695" y="0.67137779" width="2.94460459" height="4.59349585" rx="5"></rect>
                        <path d="M20.6122321,10.9442197 L20.6122321,8.02588057 C20.6122321,5.46034958 18.6822236,3.34900808 16.1953253,3.0592974 L16.1953253,3.84071273 C16.1953253,5.06130958 15.2150705,6.05079884 13.9868718,6.05079884 C12.7671767,6.05079884 11.7784184,5.06098097 11.7784184,3.84071273 L11.7784184,3.02539942 L8.09766263,3.02539942 L8.09766263,3.84071273 C8.09766263,5.06130958 7.11740783,6.05079884 5.88920918,6.05079884 C4.66951403,6.05079884 3.68075574,5.06098097 3.68075574,3.84071273 L3.68075574,3.2023563 C1.56208387,3.78248437 0,5.72227358 0,8.02588057 L0,17.6900145 C0,20.4538049 2.23982932,22.6904956 5.00279881,22.6904956 L11.9040987,22.6904956 C11.4651485,21.7655519 11.1892538,20.743921 11.114853,19.6650962 L2.20845344,19.6650962 L2.20845344,8.10524802 L18.7718543,8.10524802 L18.7718543,10.8146195 C18.8938583,10.8089751 19.0165698,10.8061226 19.1399298,10.8061226 C19.6428072,10.8061226 20.1349086,10.8535256 20.6122321,10.9442197 Z" id="Rectangle-860"></path>
                        <rect id="Rectangle-868" x="3.68075574" y="9.83254811" width="3.68075574" height="2.26904956"></rect>
                        <rect id="Rectangle-868-Copy-4" x="3.68075574" y="12.8579475" width="3.68075574" height="2.26904956"></rect>
                        <rect id="Rectangle-868-Copy-5" x="3.68075574" y="15.8833469" width="3.68075574" height="2.26904956"></rect>
                        <rect id="Rectangle-868-Copy-6" x="8.83381378" y="15.8833469" width="3.68075574" height="2.26904956"></rect>
                        <rect id="Rectangle-868-Copy" x="8.83381378" y="9.83254811" width="3.68075574" height="2.26904956"></rect>
                        <rect id="Rectangle-868-Copy-3" x="8.83381378" y="12.8579475" width="3.68075574" height="2.26904956"></rect>
                        <rect id="Rectangle-868-Copy-2" x="13.9868718" y="9.83254811" width="3.68075574" height="2.26904956"></rect>
                    </g>
                </g>
            </g>
        </g>
    </g>
</svg>