<?xml version="1.0" encoding="UTF-8" standalone="no"?>
<svg width="17px" height="30px" viewBox="0 0 17 30" version="1.1" xmlns="http://www.w3.org/2000/svg" xmlns:xlink="http://www.w3.org/1999/xlink" xmlns:sketch="http://www.bohemiancoding.com/sketch/ns">
    <!-- Generator: Sketch 3.4.3 (16044) - http://www.bohemiancoding.com/sketch -->
    <title>Rectangle 876</title>
    <desc>Created with Sketch.</desc>
    <defs></defs>
    <g id="Main-full-menu+hovers" stroke="none" stroke-width="1" fill="none" fill-rule="evenodd" sketch:type="MSPage">
        <g id="Main-New-with-calendar-2.0" sketch:type="MSArtboardGroup" transform="translate(-1016.000000, -3299.000000)" fill="#FFFFFF">
            <g id="Group-+-Group" sketch:type="MSLayerGroup" transform="translate(-1.000000, 3149.000000)">
                <g id="Group" transform="translate(0.250000, 0.281895)" sketch:type="MSShapeGroup">
                    <path d="M1017,154.579604 C1017,152.372996 1018.79506,150.584187 1021.00334,150.584187 L1029.19199,150.584187 C1031.40297,150.584187 1033.19533,152.369588 1033.19533,154.579604 L1033.19533,174.788314 C1033.19533,176.994922 1031.40026,178.783732 1029.19199,178.783732 L1021.00334,178.783732 C1018.79236,178.783732 1017,176.998331 1017,174.788314 L1017,154.579604 Z M1022.88921,152.853236 C1022.88921,152.435516 1023.2358,152.096886 1023.63848,152.096886 L1026.55685,152.096886 C1026.97066,152.096886 1027.30612,152.432603 1027.30612,152.853236 C1027.30612,153.270957 1026.95953,153.609586 1026.55685,153.609586 L1023.63848,153.609586 C1023.22467,153.609586 1022.88921,153.273869 1022.88921,152.853236 Z M1018.65634,155.336886 L1031.53899,155.336886 L1031.53899,173.489283 L1018.65634,173.489283 L1018.65634,155.336886 Z M1025.09766,177.271032 C1025.70751,177.271032 1026.20189,176.763088 1026.20189,176.136507 C1026.20189,175.509926 1025.70751,175.001982 1025.09766,175.001982 C1024.48782,175.001982 1023.99344,175.509926 1023.99344,176.136507 C1023.99344,176.763088 1024.48782,177.271032 1025.09766,177.271032 Z" id="Rectangle-876"></path>
                </g>
            </g>
        </g>
    </g>
</svg>