<?xml version="1.0" encoding="UTF-8" standalone="no"?>
<svg width="34px" height="28px" viewBox="0 0 34 28" version="1.1" xmlns="http://www.w3.org/2000/svg" xmlns:xlink="http://www.w3.org/1999/xlink" xmlns:sketch="http://www.bohemiancoding.com/sketch/ns">
    <!-- Generator: Sketch 3.3 (11970) - http://www.bohemiancoding.com/sketch -->
    <title>” copy</title>
    <desc>Created with Sketch.</desc>
    <defs></defs>
    <g id="Page-1" stroke="none" stroke-width="1" fill="none" fill-rule="evenodd" sketch:type="MSPage">
        <path d="M15.2241667,10.8541667 C15.2241667,13.0175108 14.7488936,14.9923522 13.7983333,16.77875 C12.847773,18.5651478 11.7333397,20.1138823 10.455,21.425 C9.14388233,22.7688956 7.70167453,23.9734669 6.12833333,25.03875 C4.55499213,26.1040331 3.29306031,26.8824975 2.3425,27.3741667 L0.670833333,24.4733333 C2.01472894,23.6866627 3.30124385,22.8754208 4.53041667,22.0395833 C5.75958948,21.2037458 6.70194117,20.4088927 7.3575,19.655 C8.24250442,18.6716618 8.9472196,17.6473664 9.47166667,16.5820833 C9.99611373,15.5168002 10.3238882,14.1155642 10.455,12.3783333 L8.095,12.3783333 C6.02998968,12.3783333 4.42389463,11.8538941 3.27666667,10.805 C2.12943871,9.75610587 1.55583333,8.29750934 1.55583333,6.42916667 C1.55583333,5.08527106 2.08027253,3.81514487 3.12916667,2.61875 C4.1780608,1.42235513 5.60387987,0.824166667 7.40666667,0.824166667 C10.1927917,0.824166667 12.1922162,1.75012963 13.405,3.60208333 C14.6177838,5.45403704 15.2241667,7.87137397 15.2241667,10.8541667 L15.2241667,10.8541667 Z M33.4158333,10.8541667 C33.4158333,13.0175108 32.9405603,14.9923522 31.99,16.77875 C31.0394397,18.5651478 29.9250064,20.1138823 28.6466667,21.425 C27.335549,22.7688956 25.8933412,23.9734669 24.32,25.03875 C22.7466588,26.1040331 21.484727,26.8824975 20.5341667,27.3741667 L18.8625,24.4733333 C20.2063956,23.6866627 21.4929105,22.8754208 22.7220833,22.0395833 C23.9512561,21.2037458 24.8936078,20.4088927 25.5491667,19.655 C26.4341711,18.6716618 27.1388863,17.6473664 27.6633333,16.5820833 C28.1877804,15.5168002 28.5155549,14.1155642 28.6466667,12.3783333 L26.2866667,12.3783333 C24.2216563,12.3783333 22.6155613,11.8538941 21.4683333,10.805 C20.3211054,9.75610587 19.7475,8.29750934 19.7475,6.42916667 C19.7475,5.08527106 20.2719392,3.81514487 21.3208333,2.61875 C22.3697275,1.42235513 23.7955465,0.824166667 25.5983333,0.824166667 C28.3844584,0.824166667 30.3838828,1.75012963 31.5966667,3.60208333 C32.8094505,5.45403704 33.4158333,7.87137397 33.4158333,10.8541667 L33.4158333,10.8541667 Z" id="”-copy" fill="#44c3d2" sketch:type="MSShapeGroup"></path>
    </g>
</svg>