<?xml version="1.0" encoding="UTF-8" standalone="no"?>
<svg width="33px" height="32px" viewBox="0 0 33 32" version="1.1" xmlns="http://www.w3.org/2000/svg" xmlns:xlink="http://www.w3.org/1999/xlink">
        <g id="Youtube">
            <path d="M0.268980904,16 C0.268980904,7.16344357 7.49459163,0 16.4078351,0 C25.3210787,0 32.5466894,7.16344357 32.5466894,16 C32.5466894,24.8365564 25.3210787,32 16.4078351,32 C7.49459163,32 0.268980904,24.8365564 0.268980904,16 Z" id="YouTube" fill="#0f4879"></path>
            <path d="M23.6927195,16.239111 C24.4688659,17.0031074 24.4772623,20.7747714 24.4772623,20.7965625 C24.4772623,20.7965625 24.4709746,24.5878616 23.6927195,25.3545144 C22.9197935,26.1168938 16.4047105,26.1333333 16.4047105,26.1333333 C16.4047105,26.1333333 9.89054756,26.1168938 9.11558964,25.3545529 C8.34055504,24.5905181 8.33840802,20.8251681 8.33840802,20.7965625 C8.33840802,20.7748484 8.3405167,17.0031074 9.11558964,16.239111 C9.89062424,15.4762697 16.4047105,15.4661057 16.4047105,15.4666832 C16.4047105,15.4661057 22.9197935,15.4762697 23.6927195,16.239111 Z M12.047839,23.9404436 L10.9865995,23.9404436 L10.9865995,18.4611068 L9.88947405,18.4611068 L9.88947405,17.530097 L13.1449261,17.530097 L13.1449644,18.4611068 L12.047839,18.4611068 L12.047839,23.9404436 Z M15.3064349,23.420384 C15.1311847,23.6133466 14.9516404,23.7591466 14.7626646,23.8588619 C14.5746857,23.9606947 14.3930327,24.0093973 14.2156355,24.0093973 C13.9970232,24.0093973 13.8354602,23.9404821 13.7235853,23.7984552 C13.614816,23.6568132 13.5588402,23.4474881 13.5588402,23.1648587 L13.5588402,19.2107426 L14.4997318,19.2107426 L14.4997318,22.8382622 C14.4997318,22.9506441 14.5197834,23.0312248 14.5578546,23.081044 C14.5990313,23.1319411 14.6634418,23.1563502 14.7510861,23.1563502 C14.8197523,23.1563502 14.9084317,23.1229321 15.0140189,23.0566734 C15.1206796,22.9898372 15.2167586,22.9060609 15.3064732,22.8037661 L15.3064732,19.2108196 L16.2473265,19.2108196 L16.2472882,23.9404821 L15.3064349,23.9404821 L15.3064349,23.420384 Z M18.8006275,24.0003113 C18.6158307,24.0003113 18.4521207,23.9670087 18.3085006,23.898055 C18.1649572,23.8291783 18.02866,23.7231105 17.9062418,23.577888 L17.9062418,23.9404821 L16.9548834,23.9404821 L16.9548834,17.530097 L17.9062418,17.530097 L17.9062418,19.5940498 C18.0339892,19.4508679 18.1681011,19.3400645 18.3096125,19.2659133 C18.4531559,19.1906456 18.5979261,19.153493 18.7435398,19.153493 C19.0423969,19.153493 19.2694438,19.2542478 19.425716,19.4546794 C19.5840968,19.656651 19.6622712,19.9519469 19.6622712,20.3389886 L19.6622712,22.9633491 C19.6621945,23.2978381 19.5881991,23.5544799 19.4404767,23.7331975 C19.2937128,23.9123385 19.0793945,24.0003113 18.8006275,24.0003113 Z M21.1256929,22.5800419 C21.1256929,22.8292532 21.1564029,23.0015412 21.2175545,23.0985615 C21.2808915,23.1945038 21.3864787,23.241782 21.5364632,23.241782 C21.6926586,23.241782 21.8014663,23.2008949 21.8637682,23.1192746 C21.9250348,23.0376159 21.9577385,22.8584363 21.9577385,22.5800419 L21.9577385,22.3642873 L22.9260429,22.3642873 L22.9260429,22.607146 C22.9260429,23.092286 22.8087621,23.4575366 22.5712484,23.7040529 C22.3368786,23.9479511 21.9841161,24.0693035 21.5153381,24.0693035 C21.0939861,24.0693035 20.7613519,23.9404436 20.5195442,23.6796053 C20.2776598,23.4204225 20.1551648,23.0629874 20.1551648,22.6071075 L20.1551648,20.48321 C20.1551648,20.0744543 20.2892767,19.7383097 20.5553917,19.4806285 C20.82143,19.2224467 21.1635724,19.0936253 21.5859979,19.0936253 C22.0167814,19.0936253 22.3483804,19.2133991 22.5796064,19.4525234 C22.8108324,19.6910701 22.9260045,20.0346452 22.9260045,20.48321 L22.9260045,21.6888027 L21.1256929,21.6888412 L21.1256929,22.5800419 Z M18.5936321,20.0272146 C18.6600746,20.1098744 18.6928549,20.2312653 18.6928549,20.3908867 L18.6928549,22.8329107 C18.6928549,22.9850247 18.6643303,23.092132 18.6105782,23.1584292 C18.5567494,23.2263049 18.4722106,23.259723 18.3571152,23.259723 C18.2769088,23.259723 18.2019549,23.241628 18.1300682,23.2082869 C18.0572614,23.1753693 17.9822308,23.1175806 17.9062418,23.0412734 L17.9062418,20.0945898 C17.9706139,20.0293706 18.0350244,19.98113 18.1004701,19.9503299 C18.1659924,19.9185288 18.2324732,19.9042068 18.3000276,19.9042068 C18.4267015,19.9042068 18.5249659,19.9455559 18.5936321,20.0272146 Z M21.2228837,20.0516237 C21.1574381,20.134245 21.1257696,20.2774269 21.1257696,20.4752405 L21.1257696,20.9529115 L21.9578535,20.9529115 L21.9578535,20.4752405 C21.9578535,20.2774654 21.9240763,20.1343605 21.858554,20.0516237 C21.795217,19.9630349 21.6885946,19.9211853 21.5460097,19.9211853 C21.396102,19.9211853 21.2884061,19.9630349 21.2228837,20.0516237 Z" id="Path" fill="#FFFFFF"></path>
            <path d="M10.4902553,6.4 L11.9078562,10.6678356 L11.9078562,13.4683174 L13.0989746,13.4683174 L13.0989746,10.5356905 L14.4849644,6.4 L13.273869,6.4 L12.5382412,9.22541548 L12.4633849,9.22541548 L11.6897166,6.4 L10.4902553,6.4 Z M16.1461162,8.12216388 C16.5835052,8.12216388 16.9429762,8.24841274 17.2233429,8.5010646 C17.5015665,8.7531384 17.6417881,9.07843345 17.6417881,9.47594778 L17.6417881,12.1697192 C17.6417881,12.6154824 17.5047812,12.9647093 17.2318006,13.2189412 C16.9556053,13.472595 16.5793337,13.6 16.0976663,13.6 C15.6360141,13.6 15.2650238,13.4683559 14.9867237,13.2073414 C14.7105666,12.9451322 14.5704216,12.5922443 14.5704216,12.1491401 L14.570345,9.44673636 C14.570345,9.04182282 14.7126332,8.72022737 14.9982812,8.48141047 C15.2828959,8.24205405 15.6665154,8.12216388 16.1461162,8.12216388 Z M16.0954849,12.6966424 C16.2388829,12.6966424 16.3516266,12.6563707 16.4370072,12.5772532 C16.5213928,12.4965557 16.5635664,12.3867624 16.5635664,12.2476805 L16.5635664,9.40688858 C16.5635664,9.29285611 16.520283,9.20102124 16.4338691,9.13042054 C16.3474552,9.0603979 16.2346732,9.0258683 16.0954849,9.0258683 C15.9658641,9.0258683 15.8615398,9.0603979 15.7803689,9.13042054 C15.7002696,9.20102124 15.6591675,9.29277904 15.6591675,9.40688858 L15.6591675,12.2477191 C15.6591293,12.390462 15.6981265,12.5002938 15.7729445,12.5793728 C15.8478008,12.6579122 15.9553398,12.6966424 16.0954849,12.6966424 Z M20.4602276,13.4683559 L20.4602276,12.8925671 C20.2673081,13.1042921 20.0639408,13.2672672 19.852001,13.3776001 C19.6412093,13.488511 19.4366939,13.5437738 19.2384931,13.5437738 C18.9919188,13.5437738 18.8095236,13.4657353 18.6852223,13.310776 C18.5618778,13.1552772 18.4996889,12.9228576 18.4996889,12.6118214 L18.4996889,8.25373091 L19.5557904,8.25373091 L19.5557904,12.2514187 C19.5557904,12.3750855 19.580092,12.4642227 19.6243322,12.5194084 C19.6675391,12.5746712 19.7402523,12.6027265 19.8393719,12.6027265 C19.9162947,12.6027265 20.0154143,12.5656149 20.1344726,12.4928946 C20.2524975,12.4196734 20.3621414,12.3261814 20.4601511,12.2116094 L20.4601511,8.25373091 L21.5184723,8.25373091 L21.5184723,13.4683559 L20.4602276,13.4683559 Z" id="Path" fill="#FFFFFF"></path>
        </g> 
</svg>
