<?xml version="1.0" encoding="UTF-8" standalone="no"?>
<svg width="33px" height="32px" viewBox="0 0 33 32" version="1.1" xmlns="http://www.w3.org/2000/svg" xmlns:xlink="http://www.w3.org/1999/xlink">
	<g id="Facebook">
	    <path d="M0.0614147151,15.7377049 C0.0614147151,7.04601006 7.29746707,0 16.223591,0 C25.1497149,0 32.3857673,7.04601006 32.3857673,15.7377049 C32.3857673,24.4293998 25.1497149,31.4754098 16.223591,31.4754098 C7.29746707,31.4754098 0.0614147151,24.4293998 0.0614147151,15.7377049 Z" id="Facebook" fill="#0f4879"></path>
	    <path d="M17.5750588,24.2988448 L17.5750588,15.7367025 L19.9988302,15.7367025 L20.3200322,12.7861408 L17.5750588,12.7861408 L17.5791768,11.3093563 C17.5791768,10.5398043 17.6541583,10.1274608 18.7876308,10.1274608 L20.302874,10.1274608 L20.302874,7.17656501 L17.8787595,7.17656501 C14.9670082,7.17656501 13.9421472,8.60790487 13.9421472,11.0149684 L13.9421472,12.7864749 L12.1271498,12.7864749 L12.1271498,15.7370366 L13.9421472,15.7370366 L13.9421472,24.2988448 L17.5750588,24.2988448 Z" id="Path" fill="#FFFFFF"></path>
	</g>
</svg>
