<?xml version="1.0" encoding="UTF-8" standalone="no"?>
<svg width="33px" height="32px" viewBox="0 0 33 32" version="1.1" xmlns="http://www.w3.org/2000/svg" xmlns:xlink="http://www.w3.org/1999/xlink">
    <g id="Twitter">
        <path d="M0,15.7377049 C0,7.04601006 7.23605236,0 16.1621763,0 C25.0883002,0 32.3243526,7.04601006 32.3243526,15.7377049 C32.3243526,24.4293998 25.0883002,31.4754098 16.1621763,31.4754098 C7.23605236,31.4754098 0,24.4293998 0,15.7377049 Z" id="Twitter" fill="#333333"></path>
        <path d="M15.7621559,12.5313981 L15.7960223,13.0759582 L15.2315825,13.0092774 C13.1770218,12.7536675 11.3821034,11.8868167 9.85811612,10.430952 L9.11305566,9.70857637 L8.92114614,10.242023 C8.51474952,11.4311644 8.77439181,12.6869867 9.62105143,13.5316105 C10.0726032,13.9983763 9.97100407,14.0650571 9.19207722,13.7872203 C8.92114614,13.6983126 8.68408145,13.6316317 8.66150386,13.6649722 C8.58248229,13.7427665 8.85341337,14.7540924 9.06790048,15.1541773 C9.36140915,15.7098509 9.95971528,16.254411 10.6144654,16.5767017 L11.1676163,16.8323115 L10.5128662,16.843425 C9.88069371,16.843425 9.85811612,16.8545384 9.92584889,17.0879213 C10.1516248,17.810297 11.0434396,18.5771265 12.0368535,18.9105306 L12.7367588,19.1439135 L12.1271639,19.4995446 C11.2240603,20.0107643 10.1629136,20.2997145 9.10176686,20.3219415 C8.59377109,20.333055 8.17608568,20.3775088 8.17608568,20.4108493 C8.17608568,20.521984 9.55331866,21.1443384 10.3548231,21.3888347 C12.7593364,22.1112104 15.6154015,21.8000332 17.7602726,20.5664379 C19.2842599,19.6884736 20.8082472,17.9436586 21.5194413,16.254411 C21.9032603,15.3542198 22.2870794,13.709426 22.2870794,12.9203696 C22.2870794,12.4091499 22.3209457,12.3424691 22.9531183,11.7312282 C23.3256485,11.3755971 23.6756011,10.9866256 23.7433339,10.8754909 C23.8562218,10.6643349 23.8449331,10.6643349 23.2692045,10.8532639 C22.3096569,11.1866681 22.1741914,11.1422142 22.6483208,10.642108 C22.9982734,10.2864769 23.4159588,9.64189554 23.4159588,9.45296653 C23.4159588,9.41962611 23.2466269,9.47519347 23.0547174,9.57521471 C22.8515191,9.68634943 22.3999673,9.8530515 22.0613035,9.95307274 L21.4517085,10.1420018 L20.8985576,9.7752572 C20.5937601,9.57521471 20.1647859,9.35294529 19.93901,9.28626446 C19.3632815,9.13067586 18.4827555,9.1529028 17.9634709,9.33071834 C16.5523715,9.83082455 15.6605567,11.1199872 15.7621559,12.5313981 Z" id="Path" fill="#FFFFFF"></path>
    </g>
</svg>
