<?xml version="1.0" encoding="UTF-8" standalone="no"?>
<svg width="33px" height="32px" viewBox="0 0 33 32" version="1.1" xmlns="http://www.w3.org/2000/svg" xmlns:xlink="http://www.w3.org/1999/xlink">
	<g id="LinkedIN">
	    <path d="M0.24565886,15.7377049 C0.24565886,7.04601006 7.48171122,0 16.4078351,0 C25.3339591,0 32.5700114,7.04601006 32.5700114,15.7377049 C32.5700114,24.4293998 25.3339591,31.4754098 16.4078351,31.4754098 C7.48171122,31.4754098 0.24565886,24.4293998 0.24565886,15.7377049 Z" id="LinkedIN" fill="#333333"></path>
	    <polygon id="Path" fill="#FFFFFF" points="12.2883961 12.4379354 8.63097883 12.4379354 8.63097883 23.1538118 12.2883961 23.1538118"></polygon>
	    <path d="M12.5292829,9.12308256 C12.5055448,8.07239767 11.7350432,7.27213325 10.4838638,7.27213325 C9.23268438,7.27213325 8.41470666,8.07239767 8.41470666,9.12308256 C8.41470666,10.1520041 9.20850805,10.9753121 10.4363876,10.9753121 L10.4597605,10.9753121 C11.7350432,10.9753121 12.5292829,10.1520041 12.5292829,9.12308256 Z" id="Path" fill="#FFFFFF"></path>
	    <path d="M25.4784421,17.0096558 C25.4784421,13.718202 23.6741288,12.1863059 21.2673797,12.1863059 C19.3255317,12.1863059 18.4561336,13.2263936 17.9707082,13.9560339 L17.9707082,12.4382199 L14.3128526,12.4382199 C14.3610592,13.4437423 14.3128526,23.1540963 14.3128526,23.1540963 L17.9707082,23.1540963 L17.9707082,17.1694668 C17.9707082,16.8492046 17.9944462,16.5297247 18.0911515,16.3004275 C18.3554842,15.6606142 18.9573358,14.9981842 19.9677746,14.9981842 C21.2917751,14.9981842 21.8210248,15.9808053 21.8210248,17.4208119 L21.8210248,23.1538118 L25.478296,23.1538118 L25.4784421,17.0096558 Z" id="Path" fill="#FFFFFF"></path>
	</g>  
</svg>
