<?xml version="1.0" encoding="UTF-8" standalone="no"?>
<svg width="135px" height="135px" viewBox="0 0 135 135" version="1.1" xmlns="http://www.w3.org/2000/svg" xmlns:xlink="http://www.w3.org/1999/xlink">
    <!-- Generator: Sketch 3.8.2 (29753) - http://www.bohemiancoding.com/sketch -->
    <title>Rectangle 33 Copy 2</title>
    <desc>Created with Sketch.</desc>
    <defs>
        <circle id="path-1" cx="52.5" cy="52.5" r="52.5"></circle>
        <ellipse id="path-3" cx="80.2078105" cy="92.833271" rx="23.2078105" ry="22.833271"></ellipse>
        <filter x="-50%" y="-50%" width="200%" height="200%" filterUnits="objectBoundingBox" id="filter-4">
            <feOffset dx="0" dy="1" in="SourceAlpha" result="shadowOffsetInner1"></feOffset>
            <feComposite in="shadowOffsetInner1" in2="SourceAlpha" operator="arithmetic" k2="-1" k3="1" result="shadowInnerInner1"></feComposite>
            <feColorMatrix values="0 0 0 0 0.774447279   0 0 0 0 0.774447279   0 0 0 0 0.774447279  0 0 0 1 0" type="matrix" in="shadowInnerInner1"></feColorMatrix>
        </filter>
    </defs>
    <g id="Page-2" stroke="none" stroke-width="1" fill="none" fill-rule="evenodd">
        <g id="Group-Copy-6" transform="translate(15.000000, 3.000000)">
            <g id="Oval-Copy-+-Group-Copy-+-Shape-Copy-11-+-Shape-Copy-12" transform="translate(0.000000, 12.471874)">
                <g id="Oval-Copy-+-Group-Copy">
                    <mask id="mask-2" fill="white">
                        <use xlink:href="#path-1"></use>
                    </mask>
                    <use id="Mask" fill="#F1F1F1" xlink:href="#path-1"></use>
                    <g id="Group-2" mask="url(#mask-2)">
                        <g transform="translate(18.000000, 17.528126)" id="Group-11">
                            <g transform="translate(14.000000, 51.500000) scale(-1, -1) translate(-14.000000, -51.500000) translate(0.000000, 36.000000)">
                                <path d="M20,20.5 C20,9.454305 11.045695,0.5 0,0.5" id="Oval-20" stroke="#2A79BC" stroke-width="4"></path>
                                <polygon id="Triangle-10" fill="#2A79BC" transform="translate(20.500000, 25.500000) scale(-1, -1) translate(-20.500000, -25.500000) " points="20.5 20 28 31 13 31"></polygon>
                            </g>
                            <g transform="translate(39.000000, 0.000000)">
                                <path d="M20,20.5 C20,9.454305 11.045695,0.5 0,0.5" id="Oval-20" stroke="#2A79BC" stroke-width="4"></path>
                                <polygon id="Triangle-10" fill="#2A79BC" transform="translate(20.500000, 25.500000) scale(-1, -1) translate(-20.500000, -25.500000) " points="20.5 20 28 31 13 31"></polygon>
                            </g>
                        </g>
                    </g>
                </g>
            </g>
            <g id="Oval-Copy-9">
                <use fill="#DADADA" fill-rule="evenodd" xlink:href="#path-3"></use>
                <use fill="black" fill-opacity="1" filter="url(#filter-4)" xlink:href="#path-3"></use>
                <use stroke="#B4B4B4" stroke-width="3" xlink:href="#path-3"></use>
            </g>
            <path d="M73,101.109669 C74.5384236,102.681752 76.8773195,103.642749 79.0368522,103.963417 L79.0368522,106.613471 L82.2623147,106.613471 L82.2623147,103.963417 C86.050465,103.380567 88.1812996,100.702279 88.1812996,97.6155925 C88.1812996,91.1810458 78.5633334,91.3554976 78.5633334,88.8809046 C78.5633334,87.7162124 79.7471304,87.2503354 80.8120352,87.2503354 C82.469351,87.2503354 84.3039801,88.0943592 85.4877771,89.0845997 L87.6780578,84.9209509 C86.1396342,83.5818069 84.2158359,82.8537482 82.2623147,82.6500531 L82.2623147,80 L79.0368522,80 L79.0368522,82.7367747 C75.7519437,83.34786 73.3843497,85.6772446 73.3843497,88.938383 C73.3843497,95.1984779 83.0023159,95.402173 83.0023159,97.7315575 C83.0023159,98.9839799 81.848242,99.3913701 80.7823122,99.3913701 C78.9774061,99.3913701 76.9644388,98.3426428 75.7211957,97.2364373 L73,101.109669 L73,101.109669 Z" id="Shape-Copy-13" fill="#FFFFFF"></path>
            <g id="Oval-Copy-4-+-Shape-Copy-Copy" transform="translate(18.065340, 0.719218)" fill="#2A79BC">
                <g id="Oval-Copy-4-+-Shape-Copy">
                    <path d="M18.0932746,8.82943026 C18.0932746,3.95289396 13.4014527,0 13.4014527,0 C13.4014527,0 8.70963075,3.95289396 8.70963075,8.82943026 C8.70963075,13.7059666 13.4014527,17.6588605 13.4014527,17.6588605 C13.4014527,17.6588605 18.0932746,13.7059666 18.0932746,8.82943026 Z M4.657675,38.5096236 L11.4146802,40.3149176 L12.2068883,37.3682467 C13.1050123,34.0271057 11.1163863,30.5921971 7.7649031,29.6976335 L1.00789786,27.8923395 L0.215689788,30.8390104 C-0.68243423,34.1790737 1.30619175,37.6139823 4.657675,38.5096236 L4.657675,38.5096236 Z M4.657675,26.0873587 L11.4146802,27.8923395 L12.2068883,24.9461799 C13.1050123,21.6045408 11.1163863,18.1702282 7.7649031,17.2758198 L1.00789786,15.4697614 L0.215689788,18.4159211 C-0.68243423,21.7586377 1.30619175,25.1918728 4.657675,26.0873587 L4.657675,26.0873587 Z M18.9144682,41.1617089 C16.1616263,41.8739915 14.3417694,44.2582746 14.299946,46.878605 L12.3192296,46.878605 C12.2752613,44.2593099 10.4554045,41.8770973 7.70470738,41.16585 L1.00008435,39.4317318 L0.2140177,42.2622269 C-0.677143807,45.4716398 1.29606579,48.7711233 4.62156739,49.631453 L10.0157219,51.02703 L10.0157219,61.6667513 C10.0157219,62.1253868 10.4007122,62.4980928 10.8768563,62.4980928 L14.9616146,62.4980928 C15.4366863,62.4980928 15.822749,62.1264221 15.822749,61.6667513 L15.822749,51.2247712 L21.9986806,49.6273118 C25.3231098,48.7669821 27.2963194,45.4674986 26.4062303,42.2580857 L25.6190912,39.4275906 L18.9144682,41.1617089 Z M25.612282,27.8923395 L18.8547968,29.6974769 C15.5041563,30.5930405 13.515389,34.0276511 14.412496,37.3685024 L15.2047604,40.3149176 L21.9622456,38.5097803 C25.312886,37.6142166 27.3016533,34.179606 26.4045463,30.8387548 L25.612282,27.8923395 L25.612282,27.8923395 Z M14.412496,24.9459243 L15.2047604,27.8923395 L21.9622456,26.0872022 C25.312886,25.1916385 27.3016533,21.7570279 26.4045463,18.4161767 L25.612282,15.4697614 L18.8547968,17.2748988 C15.5041563,18.1704624 13.515389,21.605073 14.412496,24.9459243 L14.412496,24.9459243 Z" id="Shape-Copy"></path>
                </g>
            </g>
        </g>
    </g>
</svg>