<?xml version="1.0" encoding="UTF-8" standalone="no"?>
<svg width="137px" height="137px" viewBox="0 0 137 137" version="1.1" xmlns="http://www.w3.org/2000/svg" xmlns:xlink="http://www.w3.org/1999/xlink">
    <!-- Generator: Sketch 3.8.2 (29753) - http://www.bohemiancoding.com/sketch -->
    <title>Rectangle 33 Copy 3</title>
    <desc>Created with Sketch.</desc>
    <defs>
        <path d="M52.5,105 C81.4949494,105 105,81.4949494 105,52.5 C105,23.5050506 81.4949494,0 52.5,0 C23.5050506,0 5.68434189e-14,23.5050506 5.68434189e-14,52.5 C5.68434189e-14,81.4949494 23.5050506,105 52.5,105 Z" id="path-1"></path>
    </defs>
    <g id="Page-2" stroke="none" stroke-width="1" fill="none" fill-rule="evenodd">
        <g id="Group-Copy-5-+-Group-Copy" transform="translate(15.000000, 7.000000)">
            <g id="Group-Copy-5" transform="translate(1.000000, 9.439204)">
                <mask id="mask-2" fill="white">
                    <use xlink:href="#path-1"></use>
                </mask>
                <use id="Mask" fill="#F1F1F1" xlink:href="#path-1"></use>
                <g id="Group" mask="url(#mask-2)">
                    <g transform="translate(39.789485, 24.317611)">
                        <rect id="Rectangle-40" fill="#D1D1D1" x="4.21960192" y="4.30035623" width="47.822155" height="70.3266986" rx="2"></rect>
                        <rect id="Rectangle-72" fill="#F1F1F1" opacity="0.695545709" x="7.03266986" y="5.62613589" width="8.43920383" height="68.9201646"></rect>
                        <rect id="Rectangle-45" fill="#2A79BC" x="33.7568153" y="0.0807543104" width="11.2522718" height="4.21960192" rx="2"></rect>
                        <rect id="Rectangle-46" fill="#B4B4B4" x="0" y="2.89382225" width="56.2613589" height="2.81306794"></rect>
                        <rect id="Rectangle-46-Copy" fill="#B4B4B4" x="0" y="14.146094" width="56.2613589" height="2.81306794"></rect>
                        <path d="M28.1306794,53.6107726 C33.5683303,53.6107726 37.9764172,49.2026856 37.9764172,43.7650348 C37.9764172,38.3273839 28.1306794,25.3983658 28.1306794,25.3983658 C28.1306794,25.3983658 18.2849416,38.3273839 18.2849416,43.7650348 C18.2849416,49.2026856 22.6930286,53.6107726 28.1306794,53.6107726 Z" id="Oval-35" fill="#3B3B3B"></path>
                        <rect id="Rectangle-46-Copy-2" fill="#B4B4B4" x="0" y="73.2205209" width="56.2613589" height="2.81306794"></rect>
                        <rect id="Rectangle-46-Copy-3" fill="#B4B4B4" x="0" y="61.9682491" width="56.2613589" height="2.81306794"></rect>
                        <path d="M20.0594648,44.7117587 C20.1213339,41.1862009 20.8667343,38.6381337 21.8572495,38.6381337 C23.2909116,38.6381337 22.1229891,41.2930881 22.3857595,43.8581006 C22.64853,46.423113 26.7842394,46.8922493 24.6277368,49.7825805 C23.3969582,51.4321764 19.9975957,48.2373165 20.0594648,44.7117587 Z" id="Path-158" fill="#FFFFFF"></path>
                    </g>
                </g>
            </g>
            <g id="Group">
                <path d="M64.6108085,23.1914889 C63.8174802,20.6502915 62.7256648,18.2408584 61.3764025,16.0042296 C55.5906552,6.4133824 45.0710646,0 33.0535483,0 C14.7985777,0 0,14.7985777 0,33.0535483 C0,51.308519 14.7985777,66.1070967 33.0535483,66.1070967" id="Oval-66" stroke="#2A79BC" stroke-width="4"></path>
                <polyline id="Path-155" stroke="#3B3B3B" stroke-width="2" stroke-linecap="round" points="33.3296359 11.5256119 33.3296356 32.1778665 24.0818463 41.4256558"></polyline>
                <g transform="translate(9.845738, 13.658806)" fill="#3B3B3B">
                    <g id="Rectangle-76-+-Rectangle-76-Copy" transform="translate(0.000000, 17.284942)">
                        <rect id="Rectangle-76" x="0" y="0" width="4.21960192" height="4.21960192"></rect>
                    </g>
                    <g id="Rectangle-76-+-Rectangle-76-Copy-2" transform="translate(8.289265, 4.453096) rotate(-315.000000) translate(-8.289265, -4.453096) translate(5.789265, 1.953096)">
                        <rect id="Rectangle-76" x="0.406533972" y="0.406533972" width="4.21960192" height="4.21960192"></rect>
                    </g>
                    <g id="Rectangle-76-+-Rectangle-76-Copy-3" transform="translate(23.224145, 40.882951) rotate(-270.000000) translate(-23.224145, -40.882951) translate(20.724145, 38.382951)">
                        <rect id="Rectangle-76-Copy" x="-4.26325641e-14" y="0.406533972" width="4.21960192" height="4.21960192"></rect>
                    </g>
                    <g id="Rectangle-76-+-Rectangle-76-Copy-4" transform="translate(23.012752, 19.612902) rotate(-225.000000) translate(-23.012752, -19.612902) translate(-0.487248, 17.112902)">
                        <rect id="Rectangle-76" x="-2.13162821e-14" y="0.406533972" width="4.21960192" height="4.21960192"></rect>
                        <rect id="Rectangle-76-Copy" x="42.1960192" y="0.406533972" width="4.21960192" height="4.21960192"></rect>
                    </g>
                </g>
            </g>
        </g>
    </g>
</svg>