<?xml version="1.0" encoding="UTF-8" standalone="no"?>
<svg width="135px" height="135px" viewBox="0 0 135 135" version="1.1" xmlns="http://www.w3.org/2000/svg" xmlns:xlink="http://www.w3.org/1999/xlink">
    <!-- Generator: Sketch 3.8.2 (29753) - http://www.bohemiancoding.com/sketch -->
    <title>Rectangle 33 Copy 4</title>
    <desc>Created with Sketch.</desc>
    <defs>
        <linearGradient x1="50%" y1="0%" x2="50%" y2="100%" id="linearGradient-1">
            <stop stop-color="#F0F0F0" offset="0%"></stop>
            <stop stop-color="#EFEFEF" offset="76.4990728%"></stop>
            <stop stop-color="#FFFFFF" offset="100%"></stop>
        </linearGradient>
        <ellipse id="path-2" cx="52.5" cy="52.5" rx="52.5" ry="52.5"></ellipse>
    </defs>
    <g id="Page-2" stroke="none" stroke-width="1" fill="none" fill-rule="evenodd">
        <g id="Group-Copy-9" transform="translate(2.000000, 11.000000)">
            <g id="Group-Copy-2">
                <g id="Oval-Copy-+-Group" transform="translate(12.845738, 4.219602)">
                    <mask id="mask-3" fill="white">
                        <use xlink:href="#path-2"></use>
                    </mask>
                    <use id="Mask" fill="url(#linearGradient-1)" xlink:href="#path-2"></use>
                </g>
                <g id="Shape"></g>
                <g id="Group" transform="translate(45.009087, 57.667893)">
                    <path d="M48.3368294,20.9836556 C50.5955252,20.9836556 52.1549772,19.8285218 51.8295865,18.4458037 L47.8504742,1.57779036 C47.6427781,0.698052707 46.0694797,0 44.3334859,0 L25.9298753,0 C24.1938816,0 22.6205832,0.698052707 22.412887,1.57779036 L18.4424288,18.4458037 C18.1170381,19.8304343 19.6764901,20.9836556 21.9369167,20.9836556 L48.3368294,20.9836556 L48.3368294,20.9836556 Z M29.4509713,27.0097558 C29.2432751,26.1300182 27.6699767,25.4319655 25.933983,25.4319655 L7.53037239,25.4319655 C5.79264785,25.4319655 4.22108024,26.1300182 4.01338408,27.0097558 L0.0429258169,43.8777692 C-0.282464834,45.2604873 1.27698717,46.4156211 3.53568291,46.4156211 L29.9355957,46.4156211 C32.1942914,46.4156211 33.7537434,45.2604873 33.4283528,43.8777692 L29.4509713,27.0097558 L29.4509713,27.0097558 Z M71.6898858,43.8777692 L67.7107735,27.0097558 C67.5030773,26.1300182 65.9297789,25.4319655 64.1937852,25.4319655 L45.7901746,25.4319655 C44.0524501,25.4319655 42.4808824,26.1300182 42.2731863,27.0097558 L38.302728,43.8777692 C37.9773374,45.2604873 39.5367894,46.4156211 41.7954851,46.4156211 L68.1971287,46.4156211 C70.4575552,46.4156211 72.0170072,45.2604873 71.6898858,43.8777692 L71.6898858,43.8777692 L71.6898858,43.8777692 Z" id="Shape" fill="#DADADA"></path>
                    <path d="M24.1125254,4.07936578 C24.3319289,2.99160517 25.408518,2.10980096 26.5124222,2.10980096 L32.0602053,2.10980096 C33.1662282,2.10980096 33.2427703,2.47670242 32.2344115,2.92784669 L28.8623104,4.43653992 C27.852499,4.88833411 26.5060457,5.98269987 25.8612161,6.87219305 L23.8306239,9.6732401 C23.1829768,10.56662 22.8355168,10.4105302 23.0552202,9.32128267 L24.1125254,4.07936578 Z" id="Rectangle-71" fill="#FFFFFF"></path>
                    <path d="M6.15462495,29.3969773 C6.37402847,28.3092167 7.45061755,27.4274125 8.5545217,27.4274125 L14.1023049,27.4274125 C15.2083277,27.4274125 15.2848699,27.7943139 14.2765111,28.2454582 L10.9044099,29.7541514 C9.89459851,30.2059456 8.54814519,31.3003114 7.90331565,32.1898045 L5.87272348,34.9908516 C5.2250763,35.8842315 4.87761631,35.7281417 5.09731973,34.6388942 L6.15462495,29.3969773 Z" id="Rectangle-71-Copy" fill="#FFFFFF"></path>
                    <path d="M44.1310422,29.3969773 C44.3504457,28.3092167 45.4270348,27.4274125 46.5309389,27.4274125 L52.0787221,27.4274125 C53.184745,27.4274125 53.2612871,27.7943139 52.2529283,28.2454582 L48.8808272,29.7541514 C47.8710158,30.2059456 46.5245624,31.3003114 45.8797329,32.1898045 L43.8491407,34.9908516 C43.2014935,35.8842315 42.8540336,35.7281417 43.073737,34.6388942 L44.1310422,29.3969773 Z" id="Rectangle-71-Copy-2" fill="#FFFFFF"></path>
                </g>
            </g>
            <g id="Group" transform="translate(12.658806, 8.439204)">
                <g id="Group-5">
                    <path d="M66.1070967,33.0535483 C66.1070967,14.7985777 51.308519,0 33.0535483,0 C14.7985777,0 0,14.7985777 0,33.0535483 C0,51.308519 14.7985777,66.1070967 33.0535483,66.1070967 L33.0535483,66.1070967" id="Oval-66" stroke="#2A79BC" stroke-width="4"></path>
                    <polygon id="Triangle-10" fill="#2A79BC" transform="translate(66.500000, 34.500000) scale(-1, -1) translate(-66.500000, -34.500000) " points="66.5 29 74 40 59 40"></polygon>
                </g>
                <polyline id="Path-155" stroke="#3B3B3B" stroke-width="2" stroke-linecap="round" points="33.3296359 11.5256119 33.3296356 32.1778665 24.0818463 41.4256558"></polyline>
                <g transform="translate(9.845738, 14.065340)" fill="#3B3B3B">
                    <g id="Rectangle-76-+-Rectangle-76-Copy" transform="translate(0.000000, 16.878408)">
                        <rect id="Rectangle-76" x="0" y="0" width="4.21960192" height="4.21960192"></rect>
                    </g>
                    <g id="Rectangle-76-+-Rectangle-76-Copy-2" transform="translate(23.138507, 19.470730) rotate(-315.000000) translate(-23.138507, -19.470730) translate(-0.361493, 16.970730)">
                        <rect id="Rectangle-76" x="-2.7533531e-14" y="-6.83897383e-14" width="4.21960192" height="4.21960192"></rect>
                        <rect id="Rectangle-76-Copy" x="42.1960192" y="8.61533067e-14" width="4.21960192" height="4.21960192"></rect>
                    </g>
                    <g id="Rectangle-76-+-Rectangle-76-Copy-3" transform="translate(23.224145, 40.476417) rotate(-270.000000) translate(-23.224145, -40.476417) translate(20.724145, 37.976417)">
                        <rect id="Rectangle-76-Copy" x="-4.26325641e-14" y="0.406533972" width="4.21960192" height="4.21960192"></rect>
                    </g>
                    <g id="Rectangle-76-+-Rectangle-76-Copy-4" transform="translate(22.725289, 18.918905) rotate(-225.000000) translate(-22.725289, -18.918905) translate(-0.774711, 16.418905)">
                        <rect id="Rectangle-76" x="8.52651283e-14" y="2.84217094e-14" width="4.21960192" height="4.21960192"></rect>
                        <rect id="Rectangle-76-Copy" x="42.1960192" y="2.84217094e-14" width="4.21960192" height="4.21960192"></rect>
                    </g>
                </g>
            </g>
        </g>
    </g>
</svg>