<?xml version="1.0" encoding="UTF-8" standalone="no"?>
<svg width="135px" height="135px" viewBox="0 0 135 135" version="1.1" xmlns="http://www.w3.org/2000/svg" xmlns:xlink="http://www.w3.org/1999/xlink">
    <!-- Generator: Sketch 3.8.2 (29753) - http://www.bohemiancoding.com/sketch -->
    <title>Rectangle 33 Copy</title>
    <desc>Created with Sketch.</desc>
    <defs>
        <ellipse id="path-1" cx="52.5" cy="52.5" rx="52.5" ry="52.5"></ellipse>
    </defs>
    <g id="Page-2" stroke="none" stroke-width="1" fill="none" fill-rule="evenodd">
        <g id="Group-Copy-8" transform="translate(1.000000, 9.000000)">
            <g id="Group">
                <g id="Oval-Copy-+-Group" transform="translate(13.658806, 5.626136)">
                    <mask id="mask-2" fill="white">
                        <use xlink:href="#path-1"></use>
                    </mask>
                    <use id="Mask" fill="#F1F1F1" xlink:href="#path-1"></use>
                    <g id="Group-2" mask="url(#mask-2)">
                        <g transform="translate(1.341194, 13.373864)" id="Group-11">
                            <g transform="translate(14.000000, 49.500000) scale(-1, -1) translate(-14.000000, -49.500000) translate(0.000000, 34.000000)">
                                <path d="M20,20.5 C20,9.454305 11.045695,0.5 0,0.5" id="Oval-20" stroke="#2A79BC" stroke-width="4"></path>
                                <polygon id="Triangle-10" fill="#2A79BC" transform="translate(20.500000, 25.500000) scale(-1, -1) translate(-20.500000, -25.500000) " points="20.5 20 28 31 13 31"></polygon>
                            </g>
                            <g transform="translate(58.000000, 0.000000)">
                                <path d="M20,20.5 C20,9.454305 11.045695,0.5 0,0.5" id="Oval-20" stroke="#2A79BC" stroke-width="4"></path>
                                <polygon id="Triangle-10" fill="#2A79BC" transform="translate(20.500000, 25.500000) scale(-1, -1) translate(-20.500000, -25.500000) " points="20.5 20 28 31 13 31"></polygon>
                            </g>
                        </g>
                    </g>
                    <g id="Group" mask="url(#mask-2)">
                        <g transform="translate(31.350281, 52.041757)">
                            <rect id="Rectangle-67" fill="#2A79BC" x="0" y="0" width="84.3920383" height="43.6025531"></rect>
                            <path d="M9.456049,5 L78.5463005,5 L78.5463005,38.7568153 L4,38.7568153 L4,11.7593761 C4.29893534,11.8160713 4.60743762,11.8457378 4.9228689,11.8457378 C7.64169432,11.8457378 9.8457378,9.64169432 9.8457378,6.9228689 C9.8457378,6.24059717 9.7069433,5.59074264 9.456049,5 Z M65.3294029,28.6588057 C68.8250356,28.6588057 71.6588057,25.8250356 71.6588057,22.3294029 C71.6588057,18.8337702 68.8250356,16 65.3294029,16 C61.8337702,16 59,18.8337702 59,22.3294029 C59,25.8250356 61.8337702,28.6588057 65.3294029,28.6588057 Z M19.3294029,28.6588057 C22.8250356,28.6588057 25.6588057,25.8250356 25.6588057,22.3294029 C25.6588057,18.8337702 22.8250356,16 19.3294029,16 C15.8337702,16 13,18.8337702 13,22.3294029 C13,25.8250356 15.8337702,28.6588057 19.3294029,28.6588057 Z M42.6588057,34.3176115 C49.6500711,34.3176115 55.3176115,28.6500711 55.3176115,21.6588057 C55.3176115,14.6675404 49.6500711,9 42.6588057,9 C35.6675404,9 30,14.6675404 30,21.6588057 C30,28.6500711 35.6675404,34.3176115 42.6588057,34.3176115 Z M38,26.2722114 C38.8552015,27.1861494 40.1553813,27.7448299 41.3558541,27.9312521 L41.3558541,29.4718737 L43.1488715,29.4718737 L43.1488715,27.9312521 C45.2546842,27.5924092 46.4392038,26.0353731 46.4392038,24.2409125 C46.4392038,20.5001567 41.0926275,20.6015751 41.0926275,19.1629582 C41.0926275,18.4858585 41.750694,18.2150186 42.3426689,18.2150186 C43.2639619,18.2150186 44.2838225,18.705696 44.941889,19.2813773 L46.1594544,16.8608193 C45.3042528,16.0823013 44.2348236,15.6590407 43.1488715,15.5406216 L43.1488715,14 L41.3558541,14 L41.3558541,15.5910376 C39.5297909,15.9462951 38.2136579,17.3004944 38.2136579,19.1963735 C38.2136579,22.8357108 43.5602343,22.95413 43.5602343,24.3083293 C43.5602343,25.0364313 42.9186907,25.2732696 42.326146,25.2732696 C41.3228083,25.2732696 40.2038105,24.6635868 39.5126982,24.0204887 L38,26.2722114 Z" id="Combined-Shape" fill="#FFFFFF"></path>
                            <ellipse id="Oval-52-Copy-3" fill="#2A79BC" cx="4.9228689" cy="37.9228689" rx="4.9228689" ry="4.9228689"></ellipse>
                            <ellipse id="Oval-52" fill="#2A79BC" cx="77.9228689" cy="6.9228689" rx="4.9228689" ry="4.9228689"></ellipse>
                            <ellipse id="Oval-52-Copy" fill="#2A79BC" cx="77.9228689" cy="38.9228689" rx="4.9228689" ry="4.9228689"></ellipse>
                        </g>
                    </g>
                </g>
                <path d="M48.3368294,20.9836556 C50.5955252,20.9836556 52.1549772,19.8285218 51.8295865,18.4458037 L47.8504742,1.57779036 C47.6427781,0.698052707 46.0694797,0 44.3334859,0 L25.9298753,0 C24.1938816,0 22.6205832,0.698052707 22.412887,1.57779036 L18.4424288,18.4458037 C18.1170381,19.8304343 19.6764901,20.9836556 21.9369167,20.9836556 L48.3368294,20.9836556 L48.3368294,20.9836556 Z M29.4509713,27.0097558 C29.2432751,26.1300182 27.6699767,25.4319655 25.933983,25.4319655 L7.53037239,25.4319655 C5.79264785,25.4319655 4.22108024,26.1300182 4.01338408,27.0097558 L0.0429258169,43.8777692 C-0.282464834,45.2604873 1.27698717,46.4156211 3.53568291,46.4156211 L29.9355957,46.4156211 C32.1942914,46.4156211 33.7537434,45.2604873 33.4283528,43.8777692 L29.4509713,27.0097558 L29.4509713,27.0097558 Z M71.6898858,43.8777692 L67.7107735,27.0097558 C67.5030773,26.1300182 65.9297789,25.4319655 64.1937852,25.4319655 L45.7901746,25.4319655 C44.0524501,25.4319655 42.4808824,26.1300182 42.2731863,27.0097558 L38.302728,43.8777692 C37.9773374,45.2604873 39.5367894,46.4156211 41.7954851,46.4156211 L68.1971287,46.4156211 C70.4575552,46.4156211 72.0170072,45.2604873 71.6898858,43.8777692 L71.6898858,43.8777692 L71.6898858,43.8777692 Z" id="Shape" fill="#DADADA"></path>
                <g id="Shape" transform="translate(3.813068, 1.406534)" fill="#CCCCCC">
                    <path d="M64.056967,26.0377758 C63.8492708,25.1580381 65.04384,39.9150284 63.1977642,42.0399386 C61.3516884,44.1648489 35.8829829,45.443641 38.1416786,45.443641 L64.5433222,45.443641 C66.8037487,45.443641 68.3632007,44.2885072 68.0360793,42.9057891 L64.056967,26.0377758 Z"></path>
                    <path d="M44.056967,0.0377757509 C43.8492708,-0.841961907 45.04384,13.9150284 43.1977642,16.0399386 C41.3516884,18.1648489 15.8829829,19.443641 18.1416786,19.443641 L44.5433222,19.443641 C46.8037487,19.443641 48.3632007,18.2885072 48.0360793,16.9057891 L44.056967,0.0377757509 Z" id="Shape-Copy-8"></path>
                    <path d="M26.056967,26.0377758 C25.8492708,25.1580381 27.04384,39.9150284 25.1977642,42.0399386 C23.3516884,44.1648489 -2.11701712,45.443641 0.141678619,45.443641 L26.5433222,45.443641 C28.8037487,45.443641 30.3632007,44.2885072 30.0360793,42.9057891 L26.056967,26.0377758 Z" id="Shape-Copy-9"></path>
                </g>
                <path d="M24.1232215,3.96956482 C24.3426251,2.88180421 25.4192141,2 26.5231183,2 L32.0709015,2 C33.1769243,2 33.2534665,2.36690146 32.2451077,2.81804573 L28.8730065,4.32673897 C27.8631951,4.77853315 26.5167418,5.87289891 25.8719122,6.7623921 L23.8413201,9.56343914 C23.1936729,10.456819 22.8462129,10.3007292 23.0659163,9.21148172 L24.1232215,3.96956482 Z" id="Rectangle-71" fill="#FFFFFF"></path>
                <path d="M6.12322154,29.9695648 C6.34262506,28.8818042 7.41921415,28 8.52311829,28 L14.0709015,28 C15.1769243,28 15.2534665,28.3669015 14.2451077,28.8180457 L10.8730065,30.326739 C9.8631951,30.7785331 8.51674178,31.8728989 7.87191224,32.7623921 L5.84132007,35.5634391 C5.19367289,36.456819 4.8462129,36.3007292 5.06591632,35.2114817 L6.12322154,29.9695648 Z" id="Rectangle-71-Copy" fill="#FFFFFF"></path>
                <path d="M44.1232215,29.9695648 C44.3426251,28.8818042 45.4192141,28 46.5231183,28 L52.0709015,28 C53.1769243,28 53.2534665,28.3669015 52.2451077,28.8180457 L48.8730065,30.326739 C47.8631951,30.7785331 46.5167418,31.8728989 45.8719122,32.7623921 L43.8413201,35.5634391 C43.1936729,36.456819 42.8462129,36.3007292 43.0659163,35.2114817 L44.1232215,29.9695648 Z" id="Rectangle-71-Copy-2" fill="#FFFFFF"></path>
            </g>
        </g>
    </g>
</svg>